<?xml version="1.0" standalone="no"?>
<!DOCTYPE svg PUBLIC "-//W3C//DTD SVG 20010904//EN"
 "http://www.w3.org/TR/2001/REC-SVG-20010904/DTD/svg10.dtd">
<svg version="1.0" xmlns="http://www.w3.org/2000/svg"
 width="160.000000pt" height="160.000000pt" viewBox="0 0 160.000000 160.000000"
 preserveAspectRatio="xMidYMid meet">
<metadata>
Created by potrace 1.14, written by Peter Selinger 2001-2017
</metadata>
<g transform="translate(0.000000,160.000000) scale(0.100000,-0.100000)"
fill="#000000" stroke="none">
<path d="M759 1253 c0 -10 -1 -144 -1 -299 l-1 -280 -56 0 c-58 0 -90 -14
-138 -62 -49 -49 -64 -107 -35 -142 25 -32 114 -33 163 -2 54 34 87 66 99 98
7 17 11 116 12 254 l0 225 51 -55 c73 -80 101 -146 94 -224 -6 -62 -22 -112
-57 -177 -17 -32 -18 -38 -5 -43 21 -8 61 66 84 155 50 196 3 392 -128 529
-40 42 -80 53 -82 23z"/>
</g>
</svg>
